<?xml version="1.0" encoding="UTF-8" standalone="no"?>
<!DOCTYPE svg PUBLIC "-//W3C//DTD SVG 1.1//EN" "http://www.w3.org/Graphics/SVG/1.1/DTD/svg11.dtd">
<svg width="100%" height="100%" viewBox="0 0 109 109" version="1.1" xmlns="http://www.w3.org/2000/svg" xmlns:xlink="http://www.w3.org/1999/xlink" xml:space="preserve" xmlns:serif="http://www.serif.com/" style="fill-rule:evenodd;clip-rule:evenodd;stroke-linejoin:round;stroke-miterlimit:2;">
    <g transform="matrix(1,0,0,1,-671,-18)">
        <g id="favicon" transform="matrix(1,0,0,1,46.8995,-26.4503)">
            <rect x="624.617" y="44.924" width="107.975" height="107.975" style="fill:none;"/>
            <clipPath id="_clip1">
                <rect x="624.617" y="44.924" width="107.975" height="107.975"/>
            </clipPath>
            <g clip-path="url(#_clip1)">
                <g transform="matrix(0.912681,0,0,0.899616,299.377,44.6716)">
                    <path d="M412.76,48.237L412.76,98.19C412.76,99.708 413.992,100.94 415.51,100.94C417.027,100.94 418.26,99.708 418.26,98.19L418.26,48.437C419.797,47.229 420.563,44.949 419.894,42.622C419.043,39.662 416.266,37.998 413.84,38.696C411.413,39.393 409.943,42.277 410.794,45.237C411.157,46.501 411.871,47.528 412.76,48.237ZM398.884,25.497C395.297,24.961 391.642,24.247 388.155,24.14C384.073,24.015 380.21,24.706 376.82,27.069C374.188,28.904 371.804,31.776 369.913,36.246C365.378,38.294 360.498,43.251 361.479,50.163C360.513,50.963 359.524,52.06 358.685,53.397C356.749,56.483 355.587,60.761 356.948,64.787C357.724,67.082 359.303,69.348 362.136,71.24C362.153,76.336 364.52,80.678 368.183,83.342C371.63,85.848 376.265,86.905 381.261,85.588C382.968,89.216 385.01,91.758 387.478,93.482C391.855,96.538 397.747,97.082 406.261,95.836C406.331,95.826 406.401,95.813 406.469,95.798C407.899,95.694 409.026,94.494 409.017,93.039L408.962,83.833L408.876,69.63C410.479,68.501 411.377,66.365 410.922,64.117C410.322,61.155 407.635,59.287 405.022,59.816L405.022,59.816C402.409,60.345 400.661,63.112 401.261,66.073C401.553,67.517 402.341,68.7 403.375,69.473L403.445,81.08L397.97,81.042L397.97,78.047C399.372,77.227 400.278,75.806 400.278,74.25C400.278,71.823 398.074,69.724 395.22,69.724C392.366,69.724 390.162,71.823 390.162,74.25C390.162,75.806 391.068,77.227 392.47,78.047L392.47,83.774C392.47,85.285 393.69,86.513 395.201,86.524L403.478,86.58L403.502,90.659C397.83,91.351 393.727,91.137 390.627,88.972C388.403,87.419 386.78,84.879 385.364,81.187L385.346,81.142L385.337,81.119C385.238,80.878 385.109,80.658 384.955,80.463L384.928,80.429L384.919,80.418C384.638,80.074 384.28,79.809 383.882,79.637L383.853,79.625C383.453,79.458 383.014,79.384 382.571,79.42L382.528,79.424L382.514,79.425C382.266,79.45 382.019,79.51 381.777,79.606L381.75,79.617C381.736,79.622 381.723,79.628 381.709,79.633C377.796,81.29 374.066,80.819 371.418,78.894C368.825,77.008 367.327,73.772 367.692,70.056C367.704,69.954 367.711,69.853 367.711,69.752C367.715,69.283 367.6,68.836 367.391,68.443C367.183,68.05 366.878,67.704 366.488,67.444C366.404,67.388 366.317,67.336 366.226,67.289C363.983,66.071 362.694,64.611 362.158,63.026C361.354,60.646 362.2,58.144 363.344,56.32C364.044,55.204 364.807,54.281 365.496,54.028C365.732,53.944 365.95,53.83 366.147,53.693C366.52,53.431 366.817,53.084 367.018,52.69L367.03,52.666C367.228,52.269 367.331,51.825 367.319,51.369C367.313,51.127 367.275,50.882 367.201,50.64C365.67,45.483 369.799,42.024 372.929,40.961C373.826,40.656 374.463,39.932 374.697,39.082C376.136,35.411 377.893,33.025 379.966,31.58C382.355,29.915 385.109,29.549 387.987,29.637C390.073,29.701 392.223,30.005 394.38,30.348C393.316,32.194 392.768,34.195 392.884,36.195C390.4,36.979 388.289,38.332 386.591,39.61C385.378,40.523 385.135,42.249 386.048,43.461C386.961,44.674 388.687,44.917 389.899,44.004C392.679,41.911 397.076,39.344 402.752,42.817C404.047,43.609 405.741,43.201 406.533,41.906C407.325,40.611 406.917,38.917 405.623,38.125C403.014,36.529 400.586,35.77 398.356,35.574C398.366,33.868 399.505,32.201 400.998,30.844C404.364,27.783 410.035,25.992 413.591,29.348C413.75,29.502 413.924,29.635 414.108,29.744L414.119,29.75C414.513,29.981 414.951,30.106 415.393,30.124L415.397,30.124C415.838,30.143 416.286,30.055 416.697,29.858L416.709,29.853C416.901,29.76 417.084,29.643 417.254,29.503C418.468,28.537 420.137,28.15 421.897,28.085C424.953,27.973 428.311,28.885 430.708,30.386C431.964,31.173 433.084,32.073 433.248,33.125C431.281,33.433 429.168,34.188 426.921,35.562C425.627,36.354 425.219,38.048 426.011,39.343C426.803,40.638 428.497,41.046 429.792,40.254C435.468,36.781 439.865,39.348 442.645,41.441C443.857,42.354 445.583,42.111 446.496,40.898C447.409,39.686 447.166,37.96 445.953,37.047C444.062,35.623 441.66,34.108 438.801,33.387C438.799,33.055 438.773,32.725 438.723,32.399C447.259,32.738 453.298,36.039 456.517,42.203C456.607,42.384 456.719,42.556 456.851,42.716C456.984,42.878 457.133,43.022 457.295,43.147C458.812,44.351 460.59,45.356 462.07,46.491C463.376,47.491 464.437,48.604 463.823,50.624C463.747,50.868 463.707,51.116 463.7,51.361L463.7,51.369C463.688,51.824 463.791,52.268 463.988,52.664L463.993,52.674C464.192,53.07 464.485,53.418 464.856,53.681L464.863,53.686C465.062,53.827 465.283,53.942 465.522,54.028C466.211,54.279 466.974,55.203 467.675,56.32C468.819,58.144 469.666,60.646 468.861,63.026C468.325,64.611 467.036,66.071 464.793,67.289C464.702,67.336 464.615,67.388 464.531,67.444C464.141,67.704 463.836,68.05 463.628,68.443C463.419,68.836 463.304,69.283 463.308,69.752C463.309,69.853 463.315,69.954 463.327,70.056C463.693,73.772 462.194,77.008 459.601,78.894C456.953,80.819 453.224,81.29 449.31,79.633L449.266,79.615L449.242,79.606C449.001,79.51 448.753,79.45 448.505,79.425L448.462,79.421L448.448,79.42C448.005,79.384 447.566,79.458 447.166,79.625L447.137,79.637C446.739,79.809 446.382,80.074 446.1,80.418L446.073,80.451L446.064,80.463C445.91,80.658 445.781,80.878 445.682,81.119L445.671,81.146C445.666,81.16 445.661,81.173 445.655,81.187C444.24,84.879 442.616,87.419 440.392,88.972C437.292,91.137 433.189,91.351 427.517,90.659L427.541,81.957L435.818,81.9C437.329,81.89 438.549,80.662 438.549,79.15L438.549,73.551C439.585,72.777 440.391,71.602 440.726,70.16C441.437,67.104 439.726,64.19 437.065,63.571L437.065,63.571C434.405,62.952 431.583,64.812 430.872,67.868C430.305,70.306 431.28,72.654 433.049,73.818L433.049,76.419L427.574,76.457L427.646,69.175C429.428,67.999 430.385,65.493 429.689,62.892C428.847,59.743 425.974,57.922 423.44,58.6C420.906,59.277 419.325,62.289 420.167,65.438C420.523,66.772 421.244,67.867 422.149,68.635L422.058,82.005L422.058,82.007L422.002,93.039C421.994,94.494 423.12,95.694 424.551,95.798C424.619,95.813 424.688,95.826 424.758,95.836C433.272,97.082 439.164,96.538 443.541,93.482C446.009,91.758 448.051,89.216 449.759,85.588C454.754,86.905 459.389,85.848 462.836,83.342C466.5,80.678 468.866,76.336 468.883,71.24C471.716,69.348 473.296,67.082 474.071,64.787C475.433,60.761 474.27,56.483 472.334,53.397C471.49,52.051 470.493,50.948 469.52,50.146C469.838,47.143 468.594,45 466.674,43.187C465.128,41.729 462.98,40.557 461.123,39.155C456.644,31.029 448.326,26.627 436.27,26.88C435.973,26.886 435.687,26.939 435.42,27.032C434.878,26.57 434.279,26.133 433.627,25.725C430.379,23.691 425.836,22.437 421.696,22.589C419.511,22.669 417.441,23.141 415.677,24.026C410.618,20.782 403.736,22.032 398.884,25.497ZM371.608,57.761C370.198,59.236 369.06,60.837 368.137,62.304C367.329,63.589 367.716,65.288 369.001,66.096C370.285,66.905 371.984,66.518 372.793,65.233C373.745,63.72 374.982,61.934 376.668,60.517C376.773,60.443 376.872,60.363 376.963,60.277C378.898,58.75 381.402,57.727 384.7,58.095C386.209,58.264 387.57,57.176 387.738,55.667C387.906,54.159 386.818,52.798 385.31,52.629C381.595,52.215 378.545,52.967 376.039,54.32C375.63,53.331 375.437,52.354 375.601,51.368C375.784,50.263 376.451,49.205 377.615,48.102C378.717,47.059 378.764,45.317 377.72,44.215C376.676,43.113 374.934,43.066 373.833,44.109C371.608,46.216 370.526,48.355 370.175,50.467C369.778,52.857 370.349,55.293 371.608,57.761ZM449.598,55.358C447.331,54.692 444.73,54.316 441.721,54.358C440.204,54.38 438.989,55.629 439.01,57.147C439.031,58.664 440.281,59.879 441.798,59.858C448.065,59.77 452.063,61.972 454.842,64.622C455.94,65.669 457.682,65.628 458.73,64.529C459.777,63.431 459.736,61.688 458.637,60.641C457.468,59.526 456.136,58.462 454.593,57.537C455.378,55.618 455.861,53.886 455.754,52.12C455.642,50.265 454.953,48.323 453.182,46.126C452.23,44.944 450.497,44.758 449.316,45.71C448.134,46.663 447.948,48.395 448.9,49.577C450.669,51.772 450.414,53.44 449.598,55.358Z" style="fill:rgb(0,128,128);"/>
                </g>
            </g>
        </g>
    </g>
</svg>
